<?xml version="1.0" encoding="utf-8"?>
<!-- Generator: Adobe Illustrator 21.1.0, SVG Export Plug-In . SVG Version: 6.00 Build 0)  -->
<svg version="1.1" id="Ebene_1" xmlns="http://www.w3.org/2000/svg" xmlns:xlink="http://www.w3.org/1999/xlink" x="0px" y="0px"
	 viewBox="0 0 1000 1000" style="enable-background:new 0 0 1000 1000;" xml:space="preserve">
<style type="text/css">
	.st0{opacity:0.45;}
	.st1{font-family:'Nexa-Book';}
	.st2{font-size:145px;}
	.st3{font-family:'Nexa-Bold';}
	.st4{font-family:'Nexa-Heavy';}
	.st5{font-family:'Nexa-Black';}
	.st6{fill:none;stroke:#000000;stroke-width:13;stroke-miterlimit:10;}
	.st7{font-family:'GothamBlack';}
	.st8{font-size:105px;}
</style>
<g>
	<path d="M450.6,376.8v17.5l-3.3-5.2l-5.3-8.3v11.7l8.2,11.2h7.8v-26C455.5,377.3,453,377.1,450.6,376.8z M470,467.3h-7.7l-8.3,8.8
		l-8.2-8.8H442v4.4l7.9,8.4l-7.9,8.6v10.9l7.8,8.2l-4.7,5h8.2l0.6-0.6l0.6,0.6h8.3l-4.7-5.2l11.9-13V493L458,480.1L470,467.3z
		 M462.8,494l-8.9,9.4l-8.6-9.5l8.6-9.5L462.8,494z M458.7,415.7v-9.5h-7.4l-3,2.8l-6.1,5.7l-0.2,0.2v10.9l9-8.5v5.9l-9,8.6v10.9
		l9.3-8.6v29h7.4l0.1-9.1l19.7-19.6L458.7,415.7z M458.8,426.1l9.2,8.6l-9.2,9.3V426.1z M488.3,387.5l-9,10.5l-0.5,0.6l-1.3-1.5
		l-8.5-10.1v-7.1c-1.9-0.5-3.7-1-5.6-1.4v39.4h5.4l2-2.4l8.1-9.7l10.1,12.2h4.9v-27.7C492.1,389.5,490.2,388.4,488.3,387.5z
		 M468.9,410.8v-17.1l6.9,8.5L468.9,410.8z M489.1,411.2l-7-8.5l1.8-2.2l5.2-6.7V411.2z M496.6,506.5v-7.9l-4.6-4.6l-2.1-2.1
		l-0.7-0.7l-2.1-2.1l-1.8-1.8h-5v10.9L469,509.4l3.5,3.5h20.6l3.5-3.4L485,497.8V495L496.6,506.5z M485.1,506.4l3.1,2.8l-3.1,3
		V506.4z M480.4,512.1l-3.1-3l3.1-2.8V512.1z M489.1,426.6l-1.1,1.1l-17.2,17.1l16.3,16.6l-21.5,20.3H476l12.5-11.4l5.3-5.4v-38.4
		H489.1z M489.2,452.4l-7.7-7.6l7.7-6.9V452.4z M613.8,380.1c-4.8-11.4-11.7-21.2-20.7-29.5c-9.1-8.3-20.2-14.7-33.4-19.2
		c-13.2-4.6-28.2-6.9-45-6.9H442v41.3c16.7,0,32.6,3.6,46.8,10.1c1.8,0.8,3.6,1.7,5.3,2.6v-7.7h21.3c15.7,0,28.3,4.2,37.8,12.5
		c9.5,8.3,14.3,20,14.3,35.1v0.5c0,8.1-1.4,15.3-4.1,21.4c-2.4,5.4-5.8,10-10.2,13.8c-0.1,0.1-0.3,0.3-0.4,0.4
		c1.8,8,2.7,16.3,2.7,24.8c0,9.9-1.3,19.4-3.6,28.5c2.3-0.7,4.7-1.4,6.9-2.2c1.8-0.6,3.5-1.3,5.1-2c11.1-4.5,20.7-10.5,28.6-17.8
		c9.2-8.4,16.2-18.4,21-30c4.8-11.6,7.3-24.2,7.3-37.8v-0.5C620.9,403.9,618.5,391.4,613.8,380.1z M530.1,479.9l6.2,11.1l2.6-8.4
		l-8.1-15.9c-0.5,0.1-1,0.2-1.6,0.3c-0.4,0.1-0.9,0.2-1.3,0.2c-1.1,0.2-2.2,0.3-3.3,0.5h0l-8.4,15.7l-6.3-12.2l-1.5-3h-6.5v4.7
		l7.9,15.9l1.5,3l-3.7,7.5l-5.6,13.3h8.1l0.7-1.3l5.8-11.3l4.9,9.7l1.3,2.6c0.4,0,0.8,0,1.2-0.1c2.4-0.1,4.7-0.3,7-0.6l0-0.7
		l-3.9-7.9l-5.8-11.6l2-3.5l5.1,9.7l3.3,6.3l2.8-7.7l-4.6-9.4l-2.9-6l1.9-3.5L530.1,479.9z"/>
</g>
<path d="M488.3,387.5l-9,10.5l-0.5,0.6l-1.3-1.5l-8.5-10.1v-7.1c-1.9-0.5-3.7-1-5.6-1.4v39.4h5.4l2-2.4l8.1-9.7l10.1,12.2h4.9v-27.7
	C492.1,389.5,490.2,388.4,488.3,387.5z M468.9,410.8v-17.1l6.9,8.5L468.9,410.8z M489.1,411.2l-7-8.5l1.8-2.2l5.2-6.7V411.2z
	 M458.7,415.7v-9.5h-7.4l-3,2.8l-6.1,5.7l-0.2,0.2l-0.3,0.3v10.9l0.3-0.3l9-8.5v5.9l-9,8.6l-0.3,0.3v10.9l0.3-0.3l9.3-8.6v29h7.4
	l0.1-9.1l19.7-19.6L458.7,415.7z M458.8,426.1l9.2,8.6l-9.2,9.3V426.1z M470,467.3h-7.7l-8.3,8.8l-8.2-8.8h-4v4.1l0.3,0.3l7.9,8.4
	l-7.9,8.6l-0.3,0.3v10.2l0.3,0.3l7.8,8.2l-4.7,5l-1.6,1.8h8.2l1.7-1.8l0.6-0.6l0.6,0.6l1.7,1.8h8.2l-1.6-1.8l-4.7-5.2l11.9-13V493
	L458,480.1L470,467.3z M462.8,494l-8.9,9.4l-8.6-9.5l8.6-9.5L462.8,494z M496.6,506.5v-7.9l-4.6-4.6l-2.1-2.1l-0.7-0.7l-2.1-2.1
	l-1.8-1.8h-5v10.9L469,509.4l5.2,5.2h17l1.8-1.8l3.5-3.4L485,497.8V495L496.6,506.5z M480.4,506.3v5.8l-3.1-3L480.4,506.3z
	 M485.1,506.4l3.1,2.8l-3.1,3V506.4z M489.1,426.6l-1.1,1.1l-17.2,17.1l16.3,16.6l-21.5,20.3H476l12.5-11.4l5.3-5.4v-38.4H489.1z
	 M489.2,452.4l-7.7-7.6l7.7-6.9V452.4z M530.8,511.9l0-0.7l-3.9-7.9l-5.8-11.6l2-3.5l5.1,9.7l3.3,6.3l2.8-7.7l-4.6-9.4l-2.9-6
	l1.9-3.5l1.3,2.4l6.2,11.1l2.6-8.4l-8.1-15.9c-0.5,0.1-1,0.2-1.6,0.3c-0.4,0.1-0.9,0.2-1.3,0.2c-1.1,0.2-2.2,0.3-3.3,0.5h0
	l-8.4,15.7l-6.3-12.2l-1.5-3h-6.5v4.7l7.9,15.9l1.5,3l-3.7,7.5l-5.6,13.3v1.8h7.2l0.9-1.8l0.7-1.3l5.8-11.3l4.9,9.7l1.3,2.6l0.7,1.3
	l0.1,0.2l0.2,0.5h-2.3c-2.6,5.9-5.8,11.4-9.7,16.5c-15.8,21.3-41.1,35-69.7,35c-47.9,0-86.8-38.9-86.8-86.8
	c0-41.4,29-76.1,67.9-84.7c5.9-1.3,12.1-2,18.4-2.1l0.5,0l8.2,11.2h7.8v-26c-2.4-0.4-4.9-0.7-7.4-0.9v17.5l-3.3-5.2l-5.3-8.3
	l-2.7-4.3c-2.9,0.1-5.7,0.3-8.5,0.6c-2.6,0.3-5.1,0.7-7.7,1.1c-47.8,8.9-83.9,50.8-83.9,101.1c0,56.8,46,102.9,102.8,102.9
	c37.9,0,71.1-20.5,88.9-51.1c3.1-5.2,5.7-10.8,7.8-16.5h-7.9L530.8,511.9z"/>
<path d="M488.3,387.5l-9,10.5l-0.5,0.6l-1.3-1.5l-8.5-10.1v-7.1c-1.9-0.5-3.7-1-5.6-1.4v39.4h5.4l2-2.4l8.1-9.7l10.1,12.2h4.9v-27.7
	C492.1,389.5,490.2,388.4,488.3,387.5z M468.9,410.8v-17.1l6.9,8.5L468.9,410.8z M489.1,411.2l-7-8.5l1.8-2.2l5.2-6.7V411.2z
	 M458.7,415.7v-9.5h-7.4l-3,2.8l-6.1,5.7l-0.2,0.2l-0.3,0.3v10.9l0.3-0.3l9-8.5v5.9l-9,8.6l-0.3,0.3v10.9l0.3-0.3l9.3-8.6v29h7.4
	l0.1-9.1l19.7-19.6L458.7,415.7z M458.8,426.1l9.2,8.6l-9.2,9.3V426.1z M470,467.3h-7.7l-8.3,8.8l-8.2-8.8h-4v4.1l0.3,0.3l7.9,8.4
	l-7.9,8.6l-0.3,0.3v10.2l0.3,0.3l7.8,8.2l-4.7,5l-1.6,1.8h8.2l1.7-1.8l0.6-0.6l0.6,0.6l1.7,1.8h8.2l-1.6-1.8l-4.7-5.2l11.9-13V493
	L458,480.1L470,467.3z M462.8,494l-8.9,9.4l-8.6-9.5l8.6-9.5L462.8,494z M496.6,506.5v-7.9l-4.6-4.6l-2.1-2.1l-0.7-0.7l-2.1-2.1
	l-1.8-1.8h-5v10.9L469,509.4l5.2,5.2h17l1.8-1.8l3.5-3.4L485,497.8V495L496.6,506.5z M480.4,506.3v5.8l-3.1-3L480.4,506.3z
	 M485.1,506.4l3.1,2.8l-3.1,3V506.4z M489.1,426.6l-1.1,1.1l-17.2,17.1l16.3,16.6l-21.5,20.3H476l12.5-11.4l5.3-5.4v-38.4H489.1z
	 M489.2,452.4l-7.7-7.6l7.7-6.9V452.4z M530.8,511.9l0-0.7l-3.9-7.9l-5.8-11.6l2-3.5l5.1,9.7l3.3,6.3l2.8-7.7l-4.6-9.4l-2.9-6
	l1.9-3.5l1.3,2.4l6.2,11.1l2.6-8.4l-8.1-15.9c-0.5,0.1-1,0.2-1.6,0.3c-0.4,0.1-0.9,0.2-1.3,0.2c-1.1,0.2-2.2,0.3-3.3,0.5h0
	l-8.4,15.7l-6.3-12.2l-1.5-3h-6.5v4.7l7.9,15.9l1.5,3l-3.7,7.5l-5.6,13.3v1.8h7.2l0.9-1.8l0.7-1.3l5.8-11.3l4.9,9.7l1.3,2.6l0.7,1.3
	l0.1,0.2l0.2,0.5h-2.3c-2.6,5.9-5.8,11.4-9.7,16.5c-15.8,21.3-41.1,35-69.7,35c-47.9,0-86.8-38.9-86.8-86.8
	c0-41.4,29-76.1,67.9-84.7c5.9-1.3,12.1-2,18.4-2.1l0.5,0l8.2,11.2h7.8v-26c-2.4-0.4-4.9-0.7-7.4-0.9v17.5l-3.3-5.2l-5.3-8.3
	l-2.7-4.3c-2.9,0.1-5.7,0.3-8.5,0.6c-2.6,0.3-5.1,0.7-7.7,1.1c-47.8,8.9-83.9,50.8-83.9,101.1c0,56.8,46,102.9,102.8,102.9
	c37.9,0,71.1-20.5,88.9-51.1c3.1-5.2,5.7-10.8,7.8-16.5h-7.9L530.8,511.9z"/>
<path class="st0" d="M943.5,714.6c-0.7,0.4-1.4,0.7-2.1,1c-4.1,1.8-8.5,3.1-13.4,3.9c-4,0.7-8.3,1-12.8,1h-21.3v-77.8
	c-15.2-8.9-32.9-14-51.9-14v138.1h71.2c2.8,0,5.5-0.1,8.2-0.2c-13.5,30.5-43.9,51.8-79.4,51.8V830h-30.1c9.5,2.9,19.6,4.5,30.1,4.5
	c45.2,0,83.6-29.2,97.4-69.8c0.2-0.6,0.4-1.2,0.6-1.8c3.2-9.8,4.9-20.3,4.9-31.3C944.9,725.9,944.4,720.2,943.5,714.6z"/>
<text transform="matrix(1 0 0 1 228.6086 185.5764)"><tspan x="0" y="0" class="st1 st2">D</tspan><tspan x="108.3" y="0" class="st3 st2">IN</tspan><tspan x="262.2" y="0" class="st4 st2">EU</tspan><tspan x="469.8" y="0" class="st5 st2">M</tspan></text>
<circle class="st6" cx="180.4" cy="137.5" r="43.6"/>
<path d="M442,324.5v38c0,0,0-4.4-0.8-10.1c-1.5-11.2-5.9-27.6-18.1-27.6L442,324.5z"/>
<g>
	<path d="M1278.4,551.4c-0.7,0.4-1.4,0.7-2.1,1c-4.1,1.8-8.5,3.1-13.3,3.9c-4,0.7-8.3,1-12.8,1h-21.3v-77.8
		c-15.2-8.9-32.9-14-51.9-14v136.3h71.5c2.8,0,5.5-0.1,8.2-0.2c5.3-0.3,10.5-0.8,15.4-1.5c0.9-0.1,1.7-0.3,2.6-0.4
		c0.1,0,0.2,0,0.3,0c3.2-9.9,4.8-20.4,4.8-31.3C1279.8,562.6,1279.3,556.9,1278.4,551.4z M1348.7,469.1
		c-4.8-11.4-11.7-21.2-20.7-29.5c-9.1-8.3-20.2-14.7-33.4-19.2c-13.2-4.6-28.2-6.9-45-6.9H1177v41.3c18.8,0,36.5,4.6,52.2,12.7v-7.7
		h21.3c15.7,0,28.3,4.2,37.8,12.5c9.5,8.3,14.3,20,14.3,35.1v0.5c0,15.2-4.8,27-14.3,35.2c-0.2,0.1-0.3,0.3-0.5,0.4
		c1.8,8,2.7,16.3,2.7,24.8c0,9.9-1.3,19.4-3.6,28.5c2.4-0.7,4.7-1.4,6.9-2.2c13.4-4.8,24.6-11.3,33.8-19.8c9.1-8.4,16.1-18.4,21-30
		c4.8-11.6,7.3-24.2,7.3-37.8v-0.5C1355.9,493,1353.5,480.5,1348.7,469.1z"/>
</g>
<path d="M1278.4,551.4c-0.7,0.4-1.4,0.7-2.1,1c-4.1,1.8-8.5,3.1-13.3,3.9c-4,0.7-8.3,1-12.8,1h-21.3v-77.8
	c-15.2-8.9-32.9-14-51.9-14h-0.3c-56.6,0.2-102.5,46.1-102.5,102.8c0,56.8,46,102.8,102.8,102.8c45.2,0,83.6-29.2,97.4-69.8
	c0.2-0.6,0.4-1.2,0.6-1.8c3.2-9.9,4.8-20.4,4.8-31.3C1279.8,562.6,1279.3,556.9,1278.4,551.4z M1177,655.2
	c-47.9,0-86.8-38.9-86.8-86.8c0-47.8,38.7-86.6,86.5-86.8v122h71.6c2.8,0,5.5-0.1,8.2-0.2C1242.9,633.9,1212.4,655.2,1177,655.2z"/>
<path d="M1278.4,551.4c-0.7,0.4-1.4,0.7-2.1,1c-4.1,1.8-8.5,3.1-13.3,3.9c-4,0.7-8.3,1-12.8,1h-21.3v-77.8
	c-15.2-8.9-32.9-14-51.9-14h-0.3c-56.6,0.2-102.5,46.1-102.5,102.8c0,56.8,46,102.8,102.8,102.8c45.2,0,83.6-29.2,97.4-69.8
	c0.2-0.6,0.4-1.2,0.6-1.8c3.2-9.9,4.8-20.4,4.8-31.3C1279.8,562.6,1279.3,556.9,1278.4,551.4z M1177,655.2
	c-47.9,0-86.8-38.9-86.8-86.8c0-47.8,38.7-86.6,86.5-86.8v122h71.6c2.8,0,5.5-0.1,8.2-0.2C1242.9,633.9,1212.4,655.2,1177,655.2z"/>
<path d="M1177,451.5c0,0-0.4-37.8-18.9-37.8l18.9-0.2"/>
<text transform="matrix(1 0 0 1 208 746)" class="st7 st8">ODINEUM</text>
<path d="M920.8,406.7c0,0,1.3,3.7,0.6,5.1s-3.2,5.9-3.2,5.9s-0.8,2.4,0.4,5.5s5.1,7.8,3.3,9.4c0,0,1.3-6.6,0-9.3s8.7-11.6,8.3-19.2"
	/>
<path d="M896.5,431.3c0,0-1,3.8-2.4,4.6c-1.4,0.8-6,3.1-6,3.1s-2,1.6-2.7,4.7c-0.7,3.2-0.3,9.3-2.6,9.6c0,0,4.8-4.7,5.3-7.6
	c0.5-3,13.7-4.5,17.7-11.1"/>
<path d="M920.1,383.3c0,0,1.8,2.2,1.3,3.2c-0.5,0.9-2.3,4-2.3,4s-0.4,1.6,1.2,3.4c1.6,1.8,6.1,4.4,4.6,5.6c0,0,0.3-4.2-1.3-5.8
	s7-8,5.5-12.7"/>
<path d="M907.5,378.9c0,0,3.3,5.1,1.5,8.3s-3.8,15.4-3.3,17.2s1.8,14,1.8,14s-0.8-18.5,1.9-22.8s1-19,8.5-24.5"/>
<path d="M878.3,387.9c0,0,3.3,5.1,1.5,8.3s-3.8,15.4-3.3,17.2s1.8,14,1.8,14s-0.8-18.5,1.9-22.8s1-19,8.5-24.5"/>
<path d="M918.1,437.4c0,0,0,6.7-4,9.3c-4,2.7,0,10.3,0,10.3s-1.9-6.8,0.3-8.4s2.5-9.3,9.3-9.9"/>
<path d="M893.3,404.7l1.1,4.3c0,0-1.2,2.1-0.5,4.5c0,0,1.6-7.5,1.1-8.8"/>
<path d="M935.5,418.7l1.1,4.3c0,0-1.2,2.1-0.5,4.5c0,0,1.6-7.5,1.1-8.8"/>
<path d="M458.7,415.7v-9.5h-7.4l-3,2.8l-6.1,5.7l-0.2,0.2l-0.3,0.3v10.9l0.3-0.3l9-8.5v5.9l-9,8.6l-0.3,0.3v10.9l0.3-0.3l9.3-8.6v29
	h7.4l0.1-9.1l19.7-19.6L458.7,415.7z M458.8,426.1l9.2,8.6l-9.2,9.3V426.1z"/>
<path d="M489.1,426.6l-1.1,1.1l-17.2,17.1l16.3,16.6l-21.5,20.3H476l12.5-11.4l5.3-5.4v-38.4H489.1z M489.2,452.4l-7.7-7.6l7.7-6.9
	V452.4z"/>
<path d="M922.4,587.5h3.2v9.5c0,0,7-1,7.7-9.5h2.9c0,0,0.4,10.2-10.5,12.9l0,4.1c0,0,13.6-2.5,14.5-17h3c0,0,0.7,16-17.5,20.4v9.8
	h-3.1V587.5z"/>
<path d="M457.9,377.7v26h-7.8l-8.2-11.2l-2.7-3.7l-8.6-11.8c2.8-0.3,5.6-0.5,8.5-0.6l2.7,4.3l5.3,8.3l3.3,5.2v-17.5
	C453,377.1,455.5,377.3,457.9,377.7z"/>
<path d="M470,467.3h-7.7l-8.3,8.8l-8.2-8.8h-4v4.1l0.3,0.3l7.9,8.4l-7.9,8.6l-0.3,0.3v10.2l0.3,0.3l7.8,8.2l-4.7,5l-1.6,1.8h8.2
	l1.7-1.8l0.6-0.6l0.6,0.6l1.7,1.8h8.2l-1.6-1.8l-4.7-5.2l11.9-13V493L458,480.1L470,467.3z M462.8,494l-8.9,9.4l-8.6-9.5l8.6-9.5
	L462.8,494z"/>
<path d="M488.3,387.5l-9,10.5l-0.5,0.6l-1.3-1.5l-8.5-10.1v-7.1c-1.9-0.5-3.7-1-5.6-1.4v39.4h5.4l2-2.4l8.1-9.7l10.1,12.2h4.9v-27.7
	C492.1,389.5,490.2,388.4,488.3,387.5z M468.9,410.8v-17.1l6.9,8.5L468.9,410.8z M489.1,411.2l-7-8.5l1.8-2.2l5.2-6.7V411.2z
	 M488.8,369.7v6.1c1.8,0.8,3.6,1.7,5.3,2.6v-7.7h0.2v-1H488.8z"/>
<path d="M528.7,477.5l-1.9,3.5l2.9,6l4.6,9.4l-2.8,7.7l-3.3-6.3l-5.1-9.7l-2,3.5l5.8,11.6l3.9,7.9l0,0.7l0,2.7l0,3h-5.6l-1.5-3
	l-0.2-0.5l-0.1-0.2l-0.7-1.3l-1.3-2.6l-4.9-9.7l-5.8,11.3l-0.7,1.3l-0.9,1.8h-7.2v-1.8l5.6-13.3l3.7-7.5l-1.5-3l-7.9-15.9v-4.7h6.5
	l1.5,3l6.3,12.2l8.4-15.7h0c1.1-0.1,2.2-0.3,3.3-0.5c0.4-0.1,0.9-0.2,1.3-0.2c0.5-0.1,1.1-0.2,1.6-0.3l8.1,15.9l-2.6,8.4l-6.2-11.1
	L528.7,477.5z"/>
<path d="M496.6,506.5v-7.9l-4.6-4.6l-2.1-2.1l-0.7-0.7l-2.1-2.1l-1.8-1.8h-5v10.9L469,509.4l5.2,5.2h17l1.8-1.8l3.5-3.4L485,497.8
	V495L496.6,506.5z M480.4,506.3v5.8l-3.1-3L480.4,506.3z M485.1,506.4l3.1,2.8l-3.1,3V506.4z"/>
<path d="M858.2,667.4v-9.5h-7.4l-17.9,16.8v11l17.6-16.6v5.9l-17.6,17v10.6l17.9-16.5v29h7.4l0.1-9.1l19.7-19.6L858.2,667.4z
	 M858.3,677.8l9.2,8.6l-9.2,9.3V677.8z"/>
<path d="M875.5,733.4l13.4-12.2l-0.1,22.4h7.5v-65.4h-7.6l-18.3,18.2l16.3,16.7l-21.5,20.3H875.5z M888.7,704l-7.7-7.6l7.7-6.9V704z
	"/>
<path d="M857.4,624.2v31.2h-7.8L827,624.2c0.3,0,9.3,0,9.3,0l13.8,21.8v-21.5L857.4,624.2z"/>
<path d="M869.5,719h-7.7l-8.3,8.8l-8.2-8.8h-7.9l12.1,12.8l-12.1,13.1v1.9l11.9,12.6l-11.9,12.9h8.1l8-8.5l8.3,8.5h7.8l-11.9-13
	l11.9-13.1v-1.6l-11.9-12.9L869.5,719z M862.3,745.6l-8.9,9.4l-8.6-9.5l8.6-9.5L862.3,745.6z"/>
<path d="M868.3,669.8l10.1-12.2l10.1,12.2h5.4v-48.4h-5.6v17.2l-10,11.8l-9.8-11.5v-17.4h-5.6v48.4H868.3z M888.6,645.4v17.4l-7-8.6
	L888.6,645.4z M868.4,645.4l6.9,8.5l-6.9,8.5V645.4z"/>
<polygon points="901.4,718.1 907,718.1 915.8,735.2 924.6,718.6 930.1,718.1 938.4,734.3 935.8,742.7 928.2,729.2 926.3,732.6 
	933.9,748.1 931.1,755.8 922.6,739.8 920.6,743.3 930.3,762.9 930.2,769.2 924.6,769.2 916,752 907.1,769.2 901.4,769.2 
	901.4,762.5 910.8,743.6 901.4,724.7 "/>
<path d="M896.1,758.2v-7.9L884.9,739h-5v10.9L868.5,761l10.9,10.9l0.4,11.1h4.8v-10.9l11.4-11l-11.5-11.6v-2.8L896.1,758.2z
	 M879.6,763.6l-2.8-2.8l2.8-2.8V763.6z M884.6,758l3.1,2.8l-3.1,3V758z"/>
<polygon points="510,512.8 509.1,514.6 509.1,514.6 510,512.8 "/>
<path d="M470,467.3h-7.7l-8.3,8.8l-8.2-8.8h-4v4.1l0.3,0.3l7.9,8.4l-7.9,8.6l-0.3,0.3v10.2l0.3,0.3l7.8,8.2l-4.7,5l-1.6,1.8h8.2
	l1.7-1.8l0.6-0.6l0.6,0.6l1.7,1.8h8.2l-1.6-1.8l-4.7-5.2l11.9-13V493L458,480.1L470,467.3z M462.8,494l-8.9,9.4l-8.6-9.5l8.6-9.5
	L462.8,494z"/>
<path d="M496.6,506.5v-7.9l-4.6-4.6l-2.1-2.1l-0.7-0.7l-2.1-2.1l-1.8-1.8h-5v10.9L469,509.4l5.2,5.2h17l1.8-1.8l3.5-3.4L485,497.8
	V495L496.6,506.5z M480.4,506.3v5.8l-3.1-3L480.4,506.3z M485.1,506.4l3.1,2.8l-3.1,3V506.4z"/>
<path d="M441.7,432.1v10.9l0.3-0.3v-10.9L441.7,432.1z M441.7,415.2v10.9l0.3-0.3v-10.9L441.7,415.2z M441.7,432.1v10.9l0.3-0.3
	v-10.9L441.7,432.1z M441.7,415.2v10.9l0.3-0.3v-10.9L441.7,415.2z M489.1,426.6l-1.1,1.1l-17.2,17.1l16.3,16.6l-21.5,20.3H476
	l12.5-11.4l5.3-5.4v-38.4H489.1z M489.2,452.4l-7.7-7.6l7.7-6.9V452.4z M458.7,415.7v-9.5h-7.4l-3,2.8l-6.1,5.7l-0.2,0.2l-0.3,0.3
	v10.9l0.3-0.3l9-8.5v5.9l-9,8.6l-0.3,0.3v10.9l0.3-0.3l9.3-8.6v29h7.4l0.1-9.1l19.7-19.6L458.7,415.7z M458.8,426.1l9.2,8.6
	l-9.2,9.3V426.1z M489.1,403.6v7.6l-7-8.5l1.8-2.2c-1.5-0.8-3-1.6-4.5-2.4c-0.6-0.3-1.2-0.6-1.8-0.8c-4.5-2.1-9.3-3.9-14.2-5.2v26.1
	h5.4l2-2.4l8.1-9.7l10.1,12.2h4.9v-11.2C492.3,405.8,490.7,404.6,489.1,403.6z M468.9,410.8v-17.1l6.9,8.5L468.9,410.8z
	 M441.7,415.2v10.9l0.3-0.3v-10.9L441.7,415.2z M441.7,432.1v10.9l0.3-0.3v-10.9L441.7,432.1z M441.7,415.2v10.9l0.3-0.3v-10.9
	L441.7,415.2z M441.7,432.1v10.9l0.3-0.3v-10.9L441.7,432.1z M441.7,415.2v10.9l0.3-0.3v-10.9L441.7,415.2z M441.7,432.1v10.9
	l0.3-0.3v-10.9L441.7,432.1z M530.1,479.9c0-0.2,0-0.4,0-0.5c0-4.2-0.3-8.3-0.8-12.3c-0.4,0.1-0.9,0.2-1.3,0.2
	c-1.1,0.2-2.2,0.3-3.3,0.5h0l-8.4,15.7l-6.3-12.2l-1.5-3h-6.5v4.7l7.9,15.9l1.5,3l-3.7,7.5l-5.6,13.3v0.3c-0.3,0.5-0.5,1-0.8,1.5
	c-3.5,6.2-7.9,11.7-13.1,16.5c-12.7,11.9-29.7,19.2-48.5,19.2c-39.1,0-70.9-31.7-70.9-70.9c0-33.5,23.2-61.5,54.4-69
	c5.3-1.3,10.8-1.9,16.5-1.9c0.8,0,1.6,0,2.4,0v-16l8.2,11.2h7.8v-13c-2.4-0.5-4.9-0.9-7.4-1.2v4.8l-3.3-5.2
	c-1.8-0.1-3.5-0.3-5.3-0.3c-0.8,0-1.6,0-2.4,0h-0.3c-5.5,0-11,0.5-16.2,1.5c-42.1,7.8-74,44.6-74,89c0,50,40.5,90.5,90.5,90.5
	c30.8,0,57.9-15.3,74.3-38.8c3.6-5.1,6.7-10.7,9.1-16.5h-13.9l0.9-1.8l0.7-1.3l5.8-11.3l4.9,9.7l1.3,2.6l0.7,1.3
	c0.2-0.5,0.4-0.9,0.6-1.4c1.2-3,2.2-6.1,3.1-9.2l-5.8-11.6l2-3.5l5.1,9.7c0.7-3.5,1.3-7.1,1.6-10.8l-2.9-6l1.9-3.5L530.1,479.9z"/>
<path d="M470,467.3h-7.7l-8.3,8.8l-8.2-8.8h-4v4.1l0.3,0.3l7.9,8.4l-7.9,8.6l-0.3,0.3v10.2l0.3,0.3l7.8,8.2l-4.7,5l-1.6,1.8h8.2
	l1.7-1.8l0.6-0.6l0.6,0.6l1.7,1.8h8.2l-1.6-1.8l-4.7-5.2l11.9-13V493L458,480.1L470,467.3z M462.8,494l-8.9,9.4l-8.6-9.5l8.6-9.5
	L462.8,494z"/>
<path d="M468.8,418.2h-5.4v-5.6c2.5,0.9,5,2,7.4,3.1L468.8,418.2z"/>
<path d="M458.7,415.7v-4.6c-3.4-1-6.9-1.7-10.4-2.1l-6.1,5.7l-0.2,0.2l-0.3,0.3v10.9l0.3-0.3l9-8.5v5.9l-9,8.6l-0.3,0.3v10.9
	l0.3-0.3l9.3-8.6v29h7.4l0.1-9.1l19.7-19.6L458.7,415.7z M458.8,426.1l9.2,8.6l-9.2,9.3V426.1z"/>
<path d="M488.1,427.7l-17.2,17.1l16.3,16.6l-21.5,20.3H476l12.5-11.4l5.3-5.4v-31.2C492.1,431.6,490.1,429.6,488.1,427.7z
	 M489.2,452.4l-7.7-7.6l7.7-6.9V452.4z"/>
<path d="M496.6,506.5v-7.9l-4.6-4.6l-2.1-2.1l-0.7-0.7l-2.1-2.1l-1.8-1.8h-5v10.9L469,509.4l5.2,5.2h17l1.8-1.8l3.5-3.4L485,497.8
	V495L496.6,506.5z M480.4,506.3v5.8l-3.1-3L480.4,506.3z M485.1,506.4l3.1,2.8l-3.1,3V506.4z"/>
<path d="M501.9,512.8v0.3c0.1-0.1,0.1-0.2,0.2-0.3c2.3-4.2,4.1-8.7,5.5-13.3L501.9,512.8z"/>
<path d="M510.5,479.4c0,3.3-0.2,6.5-0.7,9.6l-7.9-15.9v-4.7h6.5l1.5,3C510.3,474,510.5,476.6,510.5,479.4z"/>
<path d="M442,352.3v10.1c0,0,0-4.4-0.8-10.1H442z"/>
<path d="M439.3,376.5l2.7,4.3v27.7c-0.8,0-1.6,0-2.4,0c-5.7,0-11.2,0.7-16.5,1.9v-32.2c2.5-0.5,5.1-0.8,7.7-1.1
	C433.6,376.8,436.4,376.6,439.3,376.5z"/>
<polygon points="441.7,415.2 442,414.9 442,425.8 441.7,426.1 "/>
<polygon points="441.7,432.1 442,431.8 442,438.8 441.7,438.8 "/>
<path d="M564,440.3v63.4c-1.7,0.7-3.4,1.3-5.1,2c-2.3,0.8-4.6,1.5-6.9,2.2c2.4-9.1,3.6-18.7,3.6-28.5c0-8.5-0.9-16.8-2.7-24.8
	c0.2-0.1,0.3-0.3,0.4-0.4c4.5-3.8,7.9-8.5,10.2-13.8H564z"/>
<path d="M538.7,514.6c-2.1,5.8-4.7,11.3-7.8,16.5H488c5.1-4.8,9.5-10.4,13.1-16.5H538.7z"/>
<g>
	<path d="M561.7,444.2c-2.1,3.6-4.8,6.9-8,9.7c-4.1,3.5-8.7,6.3-13.9,8.3c3.5,6.1,5.7,15.9,5.7,26.8c0,8-1.2,15.4-3.2,21.1
		c5.9-1.1,11.5-2.7,16.9-4.6c13.3-4.8,24.5-11.4,33.6-19.8c9.1-8.5,16.1-18.5,20.9-30.1c1.5-3.7,2.8-7.5,3.9-11.4H561.7z"/>
</g>
</svg>
